<?xml version="1.0" standalone="no"?>
<!DOCTYPE svg PUBLIC "-//W3C//DTD SVG 20010904//EN"
 "http://www.w3.org/TR/2001/REC-SVG-20010904/DTD/svg10.dtd">
<svg version="1.0" xmlns="http://www.w3.org/2000/svg"
 width="700.000000pt" height="700.000000pt" viewBox="0 0 700.000000 700.000000"
 preserveAspectRatio="xMidYMid meet">
<metadata>
Created by potrace 1.14, written by Peter Selinger 2001-2017
</metadata>
<g transform="translate(0.000000,700.000000) scale(0.100000,-0.100000)"
fill="#000000" stroke="none">
<path d="M1226 6103 c2 -29 -3 -37 -35 -57 -35 -23 -40 -35 -185 -427 -82
-222 -157 -424 -167 -449 -25 -63 -318 -854 -339 -915 -10 -27 -29 -79 -43
-115 -14 -36 -73 -195 -132 -355 -59 -159 -118 -317 -131 -350 -20 -48 -24
-71 -19 -115 38 -353 307 -636 710 -748 533 -149 1117 71 1322 498 33 68 64
193 66 263 1 51 -5 79 -36 156 -21 52 -45 115 -53 140 -8 25 -19 55 -24 66
-13 28 -110 290 -110 297 0 3 -8 23 -17 44 -9 22 -18 44 -19 49 -2 6 -41 111
-87 235 -46 124 -114 308 -151 410 -37 102 -72 194 -77 205 -5 11 -58 155
-119 320 -61 165 -115 309 -120 320 -16 38 -80 218 -80 227 0 4 439 8 975 8
l975 0 0 -132 c0 -454 0 -2844 0 -3140 l0 -358 -880 -2 c-794 -3 -881 -5 -895
-19 -13 -13 -108 -359 -139 -504 -3 -11 -39 -156 -80 -322 -42 -166 -76 -309
-76 -317 0 -8 11 -27 24 -43 l24 -28 2182 0 c1684 0 2189 3 2211 12 60 25 61
19 -86 612 -74 300 -140 556 -146 567 -6 12 -22 27 -36 33 -17 8 -279 11 -898
11 l-875 0 0 1815 0 1815 980 0 c539 0 980 -4 980 -9 0 -7 -75 -214 -129 -356
-11 -27 -83 -223 -161 -435 -78 -212 -146 -394 -150 -405 -5 -11 -29 -74 -54
-140 -24 -66 -81 -219 -126 -340 -45 -121 -99 -267 -121 -325 -21 -58 -61
-166 -89 -240 -70 -184 -71 -188 -65 -245 28 -241 166 -455 387 -599 80 -52
99 -61 200 -105 245 -104 599 -113 863 -21 33 12 69 24 80 27 32 10 144 72
210 116 84 57 202 181 253 266 44 75 90 197 97 260 3 20 8 53 11 74 4 29 -1
56 -25 115 -16 42 -82 219 -146 392 -64 173 -122 331 -130 350 -8 19 -44 116
-81 215 -36 99 -100 270 -141 380 -42 110 -92 247 -113 305 -20 58 -78 213
-127 345 -50 132 -118 317 -153 410 -66 178 -79 202 -113 207 -17 2 -22 11
-23 38 -1 19 -2 38 -3 41 -1 4 -1024 6 -2274 6 l-2274 0 3 -34z m134 -728 c67
-181 151 -409 187 -505 36 -96 97 -260 135 -365 39 -104 74 -199 79 -210 5
-11 31 -83 59 -160 28 -77 55 -149 60 -160 5 -11 34 -90 65 -175 31 -85 72
-195 91 -245 19 -49 34 -92 34 -95 0 -8 -1677 -7 -1684 1 -3 3 8 41 25 85 17
43 41 108 54 144 30 84 599 1616 629 1695 13 33 47 125 76 204 32 87 56 138
60 130 4 -8 62 -162 130 -344z m4481 184 c33 -90 106 -285 161 -434 55 -148
126 -340 158 -426 33 -85 65 -173 73 -195 8 -21 39 -106 70 -189 30 -82 85
-231 122 -330 36 -99 70 -189 75 -200 10 -24 120 -323 120 -328 0 -2 -380 -3
-845 -3 -465 1 -845 3 -845 6 0 2 47 131 104 285 58 154 177 476 267 715 89
239 190 512 224 605 35 94 88 237 119 319 31 82 56 153 56 158 0 4 9 27 19 51
11 23 27 63 36 90 10 26 19 46 21 44 2 -2 31 -77 65 -168z"/>
</g>
</svg>
