<svg version="1.1" viewBox="0.0 0.0 512.0 512.0" fill="none" stroke="none" stroke-linecap="square" stroke-miterlimit="10" xmlns:xlink="http://www.w3.org/1999/xlink" xmlns="http://www.w3.org/2000/svg"><clipPath id="p.0"><path d="m0 0l512.0 0l0 512.0l-512.0 0l0 -512.0z" clip-rule="nonzero"/></clipPath><g clip-path="url(#p.0)"><path fill="#000000" fill-opacity="0.0" d="m0 0l512.0 0l0 512.0l-512.0 0z" fill-rule="evenodd"/><path fill="#ffe599" d="m98.227615 436.8834l19.566925 -78.26773l276.99213 0l19.566956 78.26773z" fill-rule="evenodd"/><path stroke="#ffd966" stroke-width="12.0" stroke-linejoin="round" stroke-linecap="butt" d="m98.227615 436.8834l19.566925 -78.26773l276.99213 0l19.566956 78.26773z" fill-rule="evenodd"/><path fill="#000000" fill-opacity="0.0" d="m18.729658 265.94925l70.88189 -190.83464l70.88189 190.83464z" fill-rule="evenodd"/><path stroke="#ffd966" stroke-width="12.0" stroke-linejoin="round" stroke-linecap="butt" d="m18.729658 265.94925l70.88189 -190.83464l70.88189 190.83464z" fill-rule="evenodd"/><path fill="#ffe599" d="m160.49344 265.40884l0 0c-0.0015563965 19.991089 -13.522034 38.461884 -35.465378 48.45056c-21.943352 9.988647 -48.973526 9.9765625 -70.90253 -0.031677246c-21.929005 -10.00827 -35.42296 -28.49115 -35.395836 -48.48224z" fill-rule="evenodd"/><path stroke="#ffd966" stroke-width="12.0" stroke-linejoin="round" stroke-linecap="butt" d="m160.49344 265.40884l0 0c-0.0015563965 19.991089 -13.522034 38.461884 -35.465378 48.45056c-21.943352 9.988647 -48.973526 9.9765625 -70.90253 -0.031677246c-21.929005 -10.00827 -35.42296 -28.49115 -35.395836 -48.48224z" fill-rule="evenodd"/><path fill="#000000" fill-opacity="0.0" d="m351.49567 265.94925l70.8819 -190.83464l70.88187 190.83464z" fill-rule="evenodd"/><path stroke="#ffd966" stroke-width="12.0" stroke-linejoin="round" stroke-linecap="butt" d="m351.49567 265.94925l70.8819 -190.83464l70.88187 190.83464z" fill-rule="evenodd"/><path fill="#ffe599" d="m493.25943 265.40884l0 0c-0.0015563965 19.991089 -13.522003 38.461884 -35.465363 48.45056c-21.94336 9.988647 -48.97351 9.9765625 -70.90253 -0.031677246c-21.929016 -10.00827 -35.422974 -28.49115 -35.395844 -48.48224z" fill-rule="evenodd"/><path stroke="#ffd966" stroke-width="12.0" stroke-linejoin="round" stroke-linecap="butt" d="m493.25943 265.40884l0 0c-0.0015563965 19.991089 -13.522003 38.461884 -35.465363 48.45056c-21.94336 9.988647 -48.97351 9.9765625 -70.90253 -0.031677246c-21.929016 -10.00827 -35.422974 -28.49115 -35.395844 -48.48224z" fill-rule="evenodd"/><path fill="#000000" fill-opacity="0.0" d="m255.73076 76.82642l0 321.85828" fill-rule="evenodd"/><path stroke="#ffd966" stroke-width="24.0" stroke-linejoin="round" stroke-linecap="butt" d="m255.73076 76.82642l0 321.85828" fill-rule="evenodd"/><path fill="#000000" fill-opacity="0.0" d="m89.61155 75.11461l332.75592 0" fill-rule="evenodd"/><path stroke="#ffd966" stroke-width="24.0" stroke-linejoin="round" stroke-linecap="butt" d="m89.61155 75.11461l332.75592 0" fill-rule="evenodd"/></g></svg>