<svg version="1.1" viewBox="0.0 0.0 48.0 48.0" fill="none" stroke="none" stroke-linecap="square" stroke-miterlimit="10" xmlns:xlink="http://www.w3.org/1999/xlink" xmlns="http://www.w3.org/2000/svg"><clipPath id="p.0"><path d="m0 0l48.0 0l0 48.0l-48.0 0l0 -48.0z" clip-rule="nonzero"/></clipPath><g clip-path="url(#p.0)"><path fill="#000000" fill-opacity="0.0" d="m0 0l48.0 0l0 48.0l-48.0 0z" fill-rule="evenodd"/><path fill="#fff2cc" d="m9.208838 40.9588l1.8346462 -7.338581l25.968506 0l1.8346443 7.338581z" fill-rule="evenodd"/><path stroke="#000000" stroke-width="2.0" stroke-linejoin="round" stroke-linecap="butt" d="m9.208838 40.9588l1.8346462 -7.338581l25.968506 0l1.8346443 7.338581z" fill-rule="evenodd"/><path fill="#000000" fill-opacity="0.0" d="m1.7559055 24.931759l6.6456695 -17.889765l6.645669 17.889765z" fill-rule="evenodd"/><path stroke="#000000" stroke-width="2.0" stroke-linejoin="round" stroke-linecap="butt" d="m1.7559055 24.931759l6.6456695 -17.889765l6.645669 17.889765z" fill-rule="evenodd"/><path fill="#fff2cc" d="m15.047244 24.882078l0 0c-1.4591217E-4 1.8741646 -1.2677841 3.6058044 -3.3251257 4.54224c-2.0573416 0.9364357 -4.591608 0.93530464 -6.6476045 -0.0029697418c-2.0559962 -0.9382744 -3.321148 -2.6710453 -3.3186045 -4.545208z" fill-rule="evenodd"/><path stroke="#000000" stroke-width="2.0" stroke-linejoin="round" stroke-linecap="butt" d="m15.047244 24.882078l0 0c-1.4591217E-4 1.8741646 -1.2677841 3.6058044 -3.3251257 4.54224c-2.0573416 0.9364357 -4.591608 0.93530464 -6.6476045 -0.0029697418c-2.0559962 -0.9382744 -3.321148 -2.6710453 -3.3186045 -4.545208z" fill-rule="evenodd"/><path fill="#000000" fill-opacity="0.0" d="m32.952717 24.931759l6.645672 -17.889765l6.645668 17.889765z" fill-rule="evenodd"/><path stroke="#000000" stroke-width="2.0" stroke-linejoin="round" stroke-linecap="butt" d="m32.952717 24.931759l6.645672 -17.889765l6.645668 17.889765z" fill-rule="evenodd"/><path fill="#fff2cc" d="m46.244057 24.882078l0 0c-1.449585E-4 1.8741646 -1.2677841 3.6058044 -3.3251266 4.54224c-2.0573387 0.9364357 -4.591606 0.93530464 -6.647602 -0.0029697418c-2.055996 -0.9382744 -3.321148 -2.6710453 -3.3186073 -4.545208z" fill-rule="evenodd"/><path stroke="#000000" stroke-width="2.0" stroke-linejoin="round" stroke-linecap="butt" d="m46.244057 24.882078l0 0c-1.449585E-4 1.8741646 -1.2677841 3.6058044 -3.3251266 4.54224c-2.0573387 0.9364357 -4.591606 0.93530464 -6.647602 -0.0029697418c-2.055996 -0.9382744 -3.321148 -2.6710453 -3.3186073 -4.545208z" fill-rule="evenodd"/><path fill="#000000" fill-opacity="0.0" d="m23.97476 7.202477l0 30.17323" fill-rule="evenodd"/><path stroke="#000000" stroke-width="2.0" stroke-linejoin="round" stroke-linecap="butt" d="m23.97476 7.202477l0 30.17323" fill-rule="evenodd"/><path fill="#000000" fill-opacity="0.0" d="m8.401575 7.0419946l31.1811 0" fill-rule="evenodd"/><path stroke="#000000" stroke-width="2.0" stroke-linejoin="round" stroke-linecap="butt" d="m8.401575 7.0419946l31.1811 0" fill-rule="evenodd"/></g></svg>