<svg version="1.1" viewBox="0.0 0.0 960.0 720.0" fill="none" stroke="none" stroke-linecap="square" stroke-miterlimit="10" xmlns:xlink="http://www.w3.org/1999/xlink" xmlns="http://www.w3.org/2000/svg"><clipPath id="p.0"><path d="m0 0l960.0 0l0 720.0l-960.0 0l0 -720.0z" clip-rule="nonzero"/></clipPath><g clip-path="url(#p.0)"><path fill="#000000" fill-opacity="0.0" d="m0 0l960.0 0l0 720.0l-960.0 0z" fill-rule="evenodd"/><path fill="#fff2cc" d="m333.9042 542.979l17.24408 -68.97638l257.70078 0l17.24414 68.97638z" fill-rule="evenodd"/><path stroke="#000000" stroke-width="16.0" stroke-linejoin="round" stroke-linecap="butt" d="m333.9042 542.979l17.24408 -68.97638l257.70078 0l17.24414 68.97638z" fill-rule="evenodd"/><path fill="#000000" fill-opacity="0.0" d="m260.1567 391.82547l65.49606 -168.85039l65.49603 168.85039z" fill-rule="evenodd"/><path stroke="#000000" stroke-width="12.0" stroke-linejoin="round" stroke-linecap="butt" d="m260.1567 391.82547l65.49606 -168.85039l65.49603 168.85039z" fill-rule="evenodd"/><path fill="#fff2cc" d="m391.1488 391.69058l0 0c-0.0014953613 17.77945 -12.494995 34.206787 -32.771484 43.09015c-20.276459 8.883362 -45.253174 8.872192 -65.51587 -0.029266357c-20.262695 -8.901489 -32.730743 -25.339966 -32.704712 -43.119415z" fill-rule="evenodd"/><path stroke="#000000" stroke-width="16.0" stroke-linejoin="round" stroke-linecap="butt" d="m391.1488 391.69058l0 0c-0.0014953613 17.77945 -12.494995 34.206787 -32.771484 43.09015c-20.276459 8.883362 -45.253174 8.872192 -65.51587 -0.029266357c-20.262695 -8.901489 -32.730743 -25.339966 -32.704712 -43.119415z" fill-rule="evenodd"/><path fill="#000000" fill-opacity="0.0" d="m568.85223 391.82547l65.49603 -168.85039l65.49609 168.85039z" fill-rule="evenodd"/><path stroke="#000000" stroke-width="12.0" stroke-linejoin="round" stroke-linecap="butt" d="m568.85223 391.82547l65.49603 -168.85039l65.49609 168.85039z" fill-rule="evenodd"/><path fill="#fff2cc" d="m699.84436 391.69058l0 0c-0.0015258789 17.77945 -12.494995 34.206787 -32.771484 43.09015c-20.27649 8.883362 -45.253174 8.872192 -65.51587 -0.029266357c-20.262695 -8.901489 -32.730774 -25.339966 -32.704712 -43.119415z" fill-rule="evenodd"/><path stroke="#000000" stroke-width="16.0" stroke-linejoin="round" stroke-linecap="butt" d="m699.84436 391.69058l0 0c-0.0015258789 17.77945 -12.494995 34.206787 -32.771484 43.09015c-20.27649 8.883362 -45.253174 8.872192 -65.51587 -0.029266357c-20.262695 -8.901489 -32.730774 -25.339966 -32.704712 -43.119415z" fill-rule="evenodd"/><path fill="#000000" fill-opacity="0.0" d="m480.01443 224.49081l-0.03149414 285.5118" fill-rule="evenodd"/><path stroke="#000000" stroke-width="24.0" stroke-linejoin="round" stroke-linecap="butt" d="m480.01443 224.49081l-0.03149414 285.5118" fill-rule="evenodd"/><path fill="#000000" fill-opacity="0.0" d="m325.65277 222.97508l308.69287 0" fill-rule="evenodd"/><path stroke="#000000" stroke-width="24.0" stroke-linejoin="round" stroke-linecap="butt" d="m325.65277 222.97508l308.69287 0" fill-rule="evenodd"/></g></svg>